<?xml version="1.0" encoding="UTF-8" standalone="no"?>
<svg
   width="512"
   height="514"
   viewBox="0 0 512 514"
   fill="none"
   version="1.1"
   id="svg2"
   xmlns="http://www.w3.org/2000/svg"
   xmlns:svg="http://www.w3.org/2000/svg">
  <defs
     id="defs2" />
  <path
     fill-rule="evenodd"
     clip-rule="evenodd"
     d="m 503.16,323.56 c 11.39,-42.09 12.16,-87.65 0.04,-132.8 C 466.57,54.2299 326.04,-26.8001 189.33,9.77991 83.8101,38.0199 11.3899,128.07 0.689941,230.47 H 43.99 C 54.29,147.33 113.74,74.7298 199.75,51.7098 306.05,23.2598 415.13,80.6699 453.17,181.38 l -42.14,11.27 C 391.64,145.8 352.57,111.45 306.3,96.8198 l -7.74,43.8402 c 36.53,13.47 66.16,43.84 77,84.25 15.8,58.89 -13.62,119.23 -67,144.26 l 11.53,42.99 C 390.25,383.21 432.4,310.3 422.43,235.14 l 41.98,-11.23 c 4.5,28.71 2.94,57.25 -3.86,84.16 z"
     fill="#1bd96a"
     id="path1"
     style="display:none" />
  <path
     d="M 321.99,504.22 C 185.27,540.8 44.7501,459.77 8.11011,323.24 3.84011,307.31 1.17,291.33 0,275.46 h 43.27 c 1.09,11.91 3.1999,23.89 6.4099,35.83 3.36,12.51 7.7701,24.46 13.1101,35.78 l 38.59,-23.15 c -3.2501,-7.5 -5.99,-15.32 -8.17,-23.45 -24.04,-89.6 29.2,-181.7 118.92,-205.7099 17,-4.55 34.1,-6.32 50.8,-5.61 L 255.19,133 c -10.46,0.05 -21.08,1.42 -31.66,4.25 -66.22,17.73 -105.52,85.7 -87.78,151.84 1.1,4.07 2.38,8.04 3.84,11.9 l 49.35,-29.61 -14.87,-39.43 46.6,-47.87 58.9,-12.69 17.05,20.99 -27.15,27.5 -23.68,7.45 -16.92,17.39 8.29,23.07 c 0,0 16.79,17.84 16.82,17.85 l 23.72,-6.31 16.88,-18.54 36.86,-11.67 10.98,24.7 -38.03,46.63 -63.73,20.18 -28.58,-31.82 -49.82,29.89 c 25.54,29.08 63.94,45.23 103.75,41.86 l 11.53,42.99 C 218.13,431.41 160.1,406.82 124.05,361.64 L 85.6399,384.68 C 136.25,451.17 223.84,484.11 309.61,461.16 371.35,444.64 419.4,402.56 445.42,349.38 l 42.64,15.5 c -30.89,66.28 -89.84,118.94 -166.07,139.34 z"
     fill="#1bd96a"
     id="path2"
     style="display:none" />
  <path
     style="fill:#ffffff;stroke-width:0.5"
     d="m 314.54247,390.45949 c -3.09547,-11.57229 -5.5526,-21.09695 -5.46029,-21.16592 0.0923,-0.069 2.41782,-1.31315 5.16782,-2.76484 31.00985,-16.36976 53.80918,-45.74191 62.20263,-80.13503 2.66319,-10.91275 3.27802,-16.42989 3.27562,-29.3937 -0.002,-11.81991 -0.2503,-14.51226 -2.30386,-25 -7.70247,-39.33721 -35.5342,-73.3378 -73.09793,-89.3 -2.78291,-1.18255 -5.12575,-2.34787 -5.20633,-2.58959 -0.15102,-0.45308 7.21662,-42.61383 7.49557,-42.892775 0.46702,-0.467025 15.87566,5.888585 23.6343,9.748455 16.93187,8.42349 29.00989,16.96651 42.45332,30.02809 14.00325,13.60549 24.62866,28.18199 33.36503,45.77193 l 5.02851,10.12448 7.07657,-1.8824 c 3.89211,-1.03533 13.26407,-3.52336 20.82657,-5.52896 7.5625,-2.00561 13.90105,-3.77766 14.08567,-3.93789 0.46982,-0.40777 -3.44978,-9.96105 -7.50622,-18.29497 C 420.69593,112.12332 375.54229,72.774305 321.25,54.899825 268.18311,37.428777 209.6104,41.658275 159.89829,66.55093 138.01211,77.51013 121.31867,89.578685 103.99613,106.9655 87.687445,123.33471 74.885605,141.13474 64.594945,161.75 54.999985,180.97155 48.06332,202.49862 44.898641,222.875 L 43.792049,230 H 22.396024 C 5.6110935,230 1.0005839,229.8653 1.0027093,229.375 1.0106602,227.54082 3.2617943,213.64479 4.7489217,206.25 18.14492,139.63793 58.536635,80.192645 115.75,42.887534 160.14497,13.940458 213.62568,-0.75030615 266.28362,1.5370322 322.5397,3.9806655 375.59285,24.37942 419.25,60.35208 c 9.79013,8.06688 25.34098,23.55142 33.28987,33.14792 26.05485,31.45537 44.38929,69.01062 53.15048,108.87045 4.17445,18.9923 5.82205,34.43101 5.82415,54.57546 0.002,18.32431 -1.31835,32.50279 -4.5444,48.80409 -1.50685,7.61399 -3.6876,16.63414 -4.128,17.07455 -0.20945,0.20944 -41.20199,-14.51777 -41.64632,-14.9621 -0.0913,-0.0913 0.60528,-3.9371 1.54801,-8.54618 3.33907,-16.32511 3.96989,-23.0169 3.98907,-42.31627 0.0138,-13.87687 -0.16476,-18.71658 -0.91307,-24.75 -0.51161,-4.125 -1.07411,-7.74519 -1.25,-8.04486 -0.21376,-0.3642 -7.28253,1.33035 -21.31979,5.11084 -11.55,3.11064 -21.01186,5.66207 -21.02635,5.66986 -0.0145,0.008 0.14587,1.30791 0.35636,2.88916 0.79479,5.9706 1.06711,25.76742 0.45221,32.875 -3.00044,34.68229 -16.28183,66.83924 -38.85757,94.08214 -5.05754,6.10311 -16.85484,17.6698 -23.17465,22.72166 -5.68293,4.54276 -14.10384,10.36093 -20.15495,13.92544 -4.82859,2.84438 -19.23869,10.02076 -20.12156,10.02076 -0.30596,0 -3.06669,-9.39769 -6.18102,-21.04051 z"
     id="path56" />
  <path
     style="fill:#ffffff;stroke-width:0.5"
     d="M 246.5,512.43607 C 202.07932,511.13889 157.29806,497.31199 119,473.0685 59.272325,435.2596 18.501018,376.00024 4.5704445,306.75 2.8344471,298.12018 1.1204198,286.35011 0.66465755,279.92929 L 0.3502573,275.5 H 21.675128 C 33.403808,275.5 43,275.60389 43,275.73087 c 0,0.12699 0.442624,3.67074 0.983609,7.875 1.670525,12.9825 4.521214,25.61573 8.722086,38.65318 2.169465,6.73295 7.297645,19.86624 9.15412,23.44373 L 62.75,347.41821 81.75,335.98 c 10.45,-6.29101 19.21669,-11.51984 19.48154,-11.61962 0.26485,-0.0998 -0.55591,-2.86543 -1.823915,-6.1459 C 93.81366,303.74229 90.595675,290.80551 88.72034,275.25 87.712675,266.89164 87.57167,248.3397 88.456215,240.5 92.936255,200.79363 109.49479,165.99607 136.99543,138.49543 164.55892,110.93195 200.86133,93.843656 240,90.009067 c 5.5245,-0.54126 21.85191,-0.823826 22.28998,-0.385756 0.14085,0.140859 -1.44177,9.851313 -3.51694,21.578789 C 256.69787,122.92957 255,132.6317 255,132.76239 255,132.89308 253.19113,133 250.98029,133 c -8.71336,0 -21.14592,2.06061 -31.79656,5.27006 -43.7581,13.18602 -77.27545,50.55399 -85.64111,95.47994 -1.64688,8.8442 -2.05333,13.42666 -2.06218,23.25 -0.0124,13.79197 1.70401,24.98324 5.85023,38.14361 1.24863,3.96324 2.07378,5.84657 2.51925,5.75 1.24538,-0.26998 49.11796,-29.1424 49.13404,-29.63322 0.009,-0.26928 -3.27451,-9.213 -7.29629,-19.87493 l -7.31233,-19.38532 16.22049,-16.62507 c 8.92127,-9.14379 19.40196,-19.90312 23.29043,-23.90961 l 7.06994,-7.28454 3.1469,-0.6029 c 1.73079,-0.33159 14.88903,-3.14286 29.24053,-6.24727 l 26.09364,-5.64437 8.04303,9.89632 c 4.42367,5.44298 8.15242,10.1823 8.28612,10.53181 0.13717,0.3586 -5.69561,6.54993 -13.38667,14.20956 l -13.62975,13.57408 -11.5,3.58593 c -13.14094,4.09761 -11.08328,2.75364 -22.24173,14.52734 l -6.4081,6.76142 4.18825,11.65675 4.18825,11.65676 8.0968,8.58182 c 4.45324,4.72001 8.23126,8.74335 8.39561,8.94077 0.25007,0.3004 12.11649,-2.61982 21.85759,-5.37895 2.39642,-0.67877 3.09293,-1.29818 9.95719,-8.85491 4.05929,-4.4688 7.84979,-8.6252 8.42333,-9.23646 0.75191,-0.80135 6.12176,-2.71952 19.24987,-6.87627 10.01389,-3.17069 18.2757,-5.69625 18.3596,-5.61236 0.0839,0.0839 2.5318,5.50894 5.4398,12.05566 4.92179,11.08032 5.23589,11.97713 4.54392,12.97374 -0.40885,0.58883 -8.92886,11.08311 -18.93337,23.32061 l -18.19002,22.25 -31.69701,10.03165 -31.69701,10.03165 -13.69817,-15.28165 c -7.53399,-8.40491 -13.97365,-15.57462 -14.31037,-15.93268 -0.49595,-0.52741 -5.37737,2.20891 -25.70728,14.41042 l -25.09508,15.06145 1.5096,1.90601 c 2.08016,2.62643 9.12567,9.23613 14.11772,13.24448 14.3735,11.54114 32.95071,20.46916 50.90061,24.46234 9.28363,2.06526 16.62422,2.81633 27.52561,2.81633 5.48591,0 9.97439,0.12633 9.97439,0.28073 0,0.1544 2.50283,9.61407 5.56185,21.02148 3.05902,11.40741 5.47777,20.82281 5.375,20.92311 -0.5708,0.5571 -12.92233,1.31836 -21.43643,1.32119 -19.13681,0.006 -35.254,-2.60792 -53.25042,-8.63744 -30.03684,-10.06354 -55.41561,-27.60439 -76.88627,-53.14091 l -1.2459,-1.48183 -18.68391,11.17324 c -10.276155,6.14528 -18.99677,11.46424 -19.379135,11.81991 -0.58451,0.54369 -0.0014,1.4902 3.661495,5.94372 28.55526,34.71857 65.90666,59.05535 108.60459,70.7627 20.91902,5.73579 38.69796,7.86364 61.42913,7.35209 20.96288,-0.47175 37.12231,-3.01033 56.72898,-8.91186 53.61814,-16.13887 98.07824,-52.55823 125.49776,-102.80113 1.98853,-3.64375 3.79512,-6.625 4.01464,-6.625 0.65047,0 40.72117,14.60436 41.16958,15.00486 0.92243,0.82389 -9.96015,20.73467 -17.89743,32.74514 -9.63445,14.57857 -18.47186,25.44871 -31.23589,38.42055 -20.52756,20.86178 -40.68954,35.60543 -66.77764,48.83184 -21.039,10.66656 -41.65034,17.83058 -64.70296,22.48923 -20.93342,4.23038 -37.57486,5.60069 -60.04704,4.94445 z"
     id="path57" />
</svg>
